HIERARCHY
ROOT Hips
{
    OFFSET 0.000000 0.000000 0.000000
    CHANNELS 6 Xposition Yposition Zposition Zrotation Xrotation Yrotation
        JOINT Chest
        {
            OFFSET -0.000000 26.747992 -0.000000
            CHANNELS 3 Zrotation Xrotation Yrotation
            JOINT Neck
            {
                OFFSET -0.000000 19.168715 0.000000
                CHANNELS 3 Zrotation Xrotation Yrotation
                JOINT Head
                {
                    OFFSET -0.000000 10.083335 0.000000
                    CHANNELS 3 Zrotation Xrotation Yrotation
                    End Site
                    {
                        OFFSET -0.000000 15.583343 0.000000
                    }
                }
            }
            JOINT LeftCollar
            {
                OFFSET -0.000000 19.168715 0.000000
                CHANNELS 3 Zrotation Xrotation Yrotation
                JOINT LeftShoulder
                {
                    OFFSET 19.500000 -0.000000 0.000000
                    CHANNELS 3 Zrotation Xrotation Yrotation
                    JOINT LeftElbow
                    {
                        OFFSET 19.022890 0.000000 0.000000
                        CHANNELS 3 Zrotation Xrotation Yrotation
                        JOINT LeftWrist
                        {
                            OFFSET 24.768559 0.000000 0.000000
                            CHANNELS 3 Zrotation Xrotation Yrotation
                            End Site
                            {
                                OFFSET 0.000000 -13.750003 0.000000
                            }
                        }
                    }
                }
            }
            JOINT RightCollar
            {
                OFFSET -0.000000 19.168715 0.000000
                CHANNELS 3 Zrotation Xrotation Yrotation
                JOINT RightShoulder
                {
                    OFFSET -19.500000 0.000000 0.000000
                    CHANNELS 3 Zrotation Xrotation Yrotation
                    JOINT RightElbow
                    {
                        OFFSET -19.022890 0.000000 0.000000
                        CHANNELS 3 Zrotation Xrotation Yrotation
                        JOINT RightWrist
                        {
                            OFFSET -24.768559 0.000000 0.000000
                            CHANNELS 3 Zrotation Xrotation Yrotation
                            End Site
                            {
                                OFFSET -0.000000 -13.750003 0.000000
                            }
                        }
                    }
                }
            }
        }
    JOINT LeftHip
    {
        OFFSET 11.000002 0.000000 0.000000
        CHANNELS 3 Zrotation Xrotation Yrotation
        JOINT LeftKnee
        {
            OFFSET -0.000000 -39.837296 0.000000
            CHANNELS 3 Zrotation Xrotation Yrotation
            JOINT LeftAnkle
            {
                OFFSET -0.000000 -38.248398 0.000000
                CHANNELS 3 Zrotation Xrotation Yrotation
                End Site
                {
                    OFFSET -0.000000 -4.583334 15.583343
                }
            }
        }
    }
    JOINT RightHip
    {
        OFFSET -11.000002 0.000000 0.000000
        CHANNELS 3 Zrotation Xrotation Yrotation
        JOINT RightKnee
        {
            OFFSET -0.000000 -39.837296 0.000000
            CHANNELS 3 Zrotation Xrotation Yrotation
            JOINT RightAnkle
            {
                OFFSET -0.000000 -38.248398 0.000000
                CHANNELS 3 Zrotation Xrotation Yrotation
                End Site
                {
                    OFFSET -0.000000 -4.583334 15.583343
                }
            }
        }
    }
}
MOTION
Frames:    6
Frame Time:    0.010000
-81.878426    81.890366    49.544247    -3.571046    -6.369642    10.363834    13.666472    12.668434    -13.264546    -6.590969    10.102681    4.658913    0.516476    -32.789940    4.217347    -18.918707    0.952198    -5.154552    6.474353    26.248907    -79.967918    14.416930    -11.428826    -77.392609    124.166046    20.015211    43.164070    18.137238    0.023975    0.222387    40.657616    -0.101577    1.698566    9.321054    15.121392    114.950439    -102.879890    -7.682891    -12.783172    9.664795    8.291451    11.366072    -2.086731    36.657635    31.870102    -13.614929    -19.365019    3.789274    9.800021    -26.075903    15.522828    -10.899285    28.655388    11.826735    18.685291    0.499989    16.210958    
-81.818840    81.796547    49.036034    -3.533170    -6.830877    11.524744    13.347592    12.982831    -12.967945    -6.600800    10.411160    4.550954    0.629840    -32.768539    4.126285    -18.874958    0.849218    -4.552629    6.510438    26.728306    -80.052193    14.204323    -11.168298    -76.922279    123.911018    19.597702    43.097050    18.187323    0.024154    0.188084    40.836514    0.181458    1.741870    9.768922    15.652192    114.242104    -102.604973    -7.338321    -12.448949    9.786032    8.422039    11.212493    -1.437773    36.361588    30.724789    -14.119656    -20.670301    3.495496    9.318572    -25.801271    15.184261    -10.778376    28.487970    11.337088    18.647827    0.542544    15.903996    
-81.759048    81.721504    48.517563    -3.467809    -7.280196    12.693400    13.020668    13.317629    -12.653380    -6.618909    10.727782    4.463609    0.784247    -32.698765    4.063779    -18.837837    0.749273    -3.964772    6.472555    27.249939    -80.066666    13.992783    -10.927026    -76.543686    123.837158    19.329483    42.911728    18.256887    0.024395    0.208450    40.993813    0.333503    1.699476    10.260629    16.268274    113.564514    -102.336708    -7.067567    -12.109858    9.952422    8.434402    10.947340    -0.924158    36.201351    29.508488    -14.341845    -21.852156    3.273160    8.798534    -25.478138    14.862221    -10.635878    28.225513    10.790334    18.459831    0.546185    15.651709    
-81.699913    81.666603    47.990955    -3.375777    -7.722256    13.860458    12.682220    13.672787    -12.310811    -6.641066    11.057928    4.384946    0.988638    -32.579514    4.023116    -18.818266    0.657175    -3.392057    6.401716    27.800234    -80.012604    13.794456    -10.716577    -76.270164    123.913055    19.211205    42.657814    18.342762    0.044550    0.288070    41.125942    0.314390    1.567617    10.829840    17.034510    112.886581    -102.102737    -6.882522    -11.813102    10.164455    8.339226    10.584472    -0.569952    36.178238    28.272593    -14.251305    -22.881969    3.154070    8.245956    -25.095280    14.553909    -10.476707    27.858772    10.178915    18.158493    0.538533    15.455228    
-81.641151    81.632523    47.458149    -3.256586    -8.160612    15.012879    12.328177    14.049617    -11.928754    -6.660612    11.408128    4.307845    1.239034    -32.419872    3.995385    -18.823559    0.558406    -2.831503    6.342473    28.377960    -79.908150    13.627585    -10.567053    -76.094162    124.108437    19.226341    42.387371    18.440691    0.073140    0.430323    41.229324    0.141125    1.352795    11.495667    17.925739    112.210449    -101.849709    -6.790791    -11.501718    10.416533    8.156167    10.159492    -0.379842    36.278217    27.061649    -13.857534    -23.734272    3.143148    7.667367    -24.645081    14.259987    -10.306180    27.383390    9.503092    17.791880    0.547854    15.307993    
-81.581512    81.619194    46.920971    -3.108739    -8.596603    16.135550    11.954655    14.451047    -11.496127    -6.670428    11.778637    4.224015    1.524427    -32.230083    3.967643    -18.852839    0.468971    -2.284962    6.314946    28.954195    -79.754662    13.476559    -10.447565    -76.034340    124.446068    19.399088    42.159103    18.545362    0.074104    0.624243    41.301113    -0.121246    1.062379    12.244090    18.882872    111.545891    -101.552513    -6.774222    -11.160826    10.698287    7.910214    9.723994    -0.339981    36.475677    25.906500    -13.210352    -24.392246    3.219415    7.068750    -24.124611    13.983067    -10.129522    26.800043    8.772943    17.406391    0.596603    15.197522    
